<svg width="287" height="84" viewBox="0 0 287 84" fill="none" xmlns="http://www.w3.org/2000/svg">
<path d="M36.8601 17.275L45.44 55.3823C45.8134 57.0412 47.3499 58.2256 49.1276 58.2256H99.8717C101.649 58.2256 103.186 57.0409 103.559 55.3823L112.139 17.275H36.8601ZM51.9922 54.5327C50.8448 54.5327 49.9146 53.6716 49.9146 52.6095L47.0334 25.5997C47.0334 24.5373 47.9637 23.6762 49.1114 23.6762C50.2587 23.6762 51.189 24.5373 51.189 25.5997L54.0702 52.6095C54.0702 53.6716 53.1399 54.5327 51.9922 54.5327ZM62.4428 54.5327C61.2954 54.5327 60.3652 53.6716 60.3652 52.6095L59.2127 25.5997C59.2127 24.5373 60.1429 23.6762 61.2903 23.6762C62.438 23.6762 63.3683 24.5373 63.3683 25.5997L64.5207 52.6095C64.5204 53.6716 63.5902 54.5327 62.4428 54.5327ZM76.5778 52.6095C76.5778 53.6716 75.6475 54.5327 74.4998 54.5327C73.3524 54.5327 72.4222 53.6716 72.4222 52.6095V25.5997C72.4222 24.5373 73.3524 23.6762 74.4998 23.6762C75.6475 23.6762 76.5778 24.5373 76.5778 25.5997V52.6095ZM88.6348 52.6095C88.6348 53.6716 87.7045 54.5327 86.5568 54.5327C85.4091 54.5327 84.4789 53.6716 84.4789 52.6095L85.6317 25.5997C85.6317 24.5373 86.5619 23.6762 87.7093 23.6762C88.857 23.6762 89.7873 24.5373 89.7873 25.5997L88.6348 52.6095ZM99.085 52.6095C99.085 53.6716 98.1548 54.5327 97.0071 54.5327C95.8594 54.5327 94.9291 53.6716 94.9291 52.6095L97.8103 25.5997C97.8103 24.5373 98.7406 23.6762 99.8883 23.6762C101.036 23.6762 101.966 24.5373 101.966 25.5997L99.085 52.6095Z" fill="#DF2935"/>
<path d="M287 49H223" stroke="#0050B3"/>
<path d="M286.5 68H118" stroke="#0050B3"/>
<path d="M286.5 83.5H-4.5" stroke="#0050B3"/>
<path d="M112.675 20.3532H36.325C34.4884 20.3532 33 18.9752 33 17.275C33 15.5752 34.4887 14.1969 36.325 14.1969H112.675C114.511 14.1969 116 15.5749 116 17.275C116 18.9752 114.511 20.3532 112.675 20.3532Z" fill="#DF2935"/>
<path d="M52.3583 14.4291V11.7697C52.3583 7.34067 56.2372 3.75004 61.0219 3.75004H87.978C92.7627 3.75004 96.6416 7.34067 96.6416 11.7697V14.4291C96.6416 15.381 97.4751 16.1525 98.5034 16.1525C99.5317 16.1525 100.365 15.381 100.365 14.4291V11.7697C100.365 5.43691 94.8193 0.303223 87.978 0.303223H61.0219C54.1806 0.303223 48.6348 5.43691 48.6348 11.7697V14.4291C48.6348 15.381 49.4682 16.1525 50.4965 16.1525C51.5245 16.1525 52.3583 15.381 52.3583 14.4291Z" fill="#DF2935"/>
</svg>
