<?xml version="1.0" encoding="utf-8"?>
<!-- Generator: Adobe Illustrator 17.0.0, SVG Export Plug-In . SVG Version: 6.00 Build 0)  -->
<!DOCTYPE svg PUBLIC "-//W3C//DTD SVG 1.1//EN" "http://www.w3.org/Graphics/SVG/1.1/DTD/svg11.dtd">
<svg version="1.1" id="Layer_1" xmlns="http://www.w3.org/2000/svg" xmlns:xlink="http://www.w3.org/1999/xlink" x="0px" y="0px"
	 width="727.464px" height="658.467px" viewBox="733.09 134.102 727.464 658.467"
	 enable-background="new 733.09 134.102 727.464 658.467" xml:space="preserve">
<path opacity="0.1" fill="#013B7A" d="M1083.03,206.809c-1.571-0.257-22.467,7.208-22.467,7.208l-37.368,20.128l61.383-6.414
	l22.289,1.257l-17.115-19.661C1089.753,209.327,1084.601,207.065,1083.03,206.809z"/>
<path opacity="0.1" fill="#0050B3" d="M1089.753,209.327l-66.558,24.817l73.468-48.186L1089.753,209.327z"/>
<path opacity="0.1" fill="#0050B3" d="M1023.195,234.145l66.087-16.109l-8.603,28.597L1023.195,234.145z"/>
<path opacity="0.1" fill="#DAE7F7" d="M1104.381,213.946c-3.715,0.825-6.036,2.02-6.133,2.07l0.752,1.427
	c0.022-0.012,2.24-1.153,5.759-1.934L1104.381,213.946z"/>
<path opacity="0.1" fill="#DAE7F7" d="M1152.406,694.923l-1.415,0.68l-0.041-0.086c-1.845-3.858-3.906-7.302-6.126-10.232
	l1.247-0.952c2.287,3.019,4.407,6.56,6.302,10.523L1152.406,694.923z"/>
<path opacity="0.1" fill="#DAE7F7" d="M1127.079,219.774c-3.328-2.298-6.947-3.821-10.754-4.527l0.247-1.573
	c4.031,0.747,7.858,2.358,11.376,4.787L1127.079,219.774z"/>
<path fill="#5B99E6" d="M1360.657,475.148l1.38-0.765c2.202,4.199,3.937,7.654,5.461,10.873l-1.41,0.706
	C1364.574,482.764,1362.849,479.327,1360.657,475.148z M1354.931,464.365c-2.043-3.859-3.614-7.658-4.669-11.286l1.503-0.463
	c1.023,3.522,2.553,7.215,4.541,10.974l0.044,0.083l-1.385,0.758L1354.931,464.365z M1348.599,440.787
	c0.149-4.29,1.137-8.354,2.937-12.08l1.405,0.718c-1.7,3.52-2.632,7.361-2.774,11.419L1348.599,440.787z"/>
<path fill="#013B7A" d="M1358.261,390.856c0.915-1.315,20.841-11.273,20.841-11.273l40.472-13.118l-47.461,39.988l-14.675,17.002
	l-2.075-25.99C1355.363,397.465,1357.346,392.17,1358.261,390.856z"/>
<path fill="#0050B3" d="M1355.362,397.465l64.212-31l-85.719,19.832L1355.362,397.465z"/>
<path fill="#0050B3" d="M1419.574,366.465l-57.667,36.684l26.421,13.563L1419.574,366.465z"/>
<path opacity="0.1" fill="#013B7A" d="M1222.513,660.435c1.132-1.12,7.389-22.408,7.389-22.408l5.708-42.059l-30.926,53.409
	l-14.13,17.284l25.967-2.273C1216.522,664.389,1221.382,661.555,1222.513,660.435z"/>
<path opacity="0.1" fill="#0050B3" d="M1216.522,664.389l19.089-68.421l-4.259,87.757L1216.522,664.389z"/>
<path opacity="0.1" fill="#0050B3" d="M1235.611,595.968l-25.854,62.917l-18.063-23.781L1235.611,595.968z"/>
<path opacity="0.1" fill="#DAE7F7" d="M1204.181,673.501c1.518-3.489,1.918-6.069,1.934-6.177l-1.596-0.231
	c-0.004,0.025-0.385,2.489-1.824,5.794L1204.181,673.501z"/>
<path opacity="0.1" fill="#DAE7F7" d="M1162.153,690.86l0.283-1.544l0.094,0.018c4.205,0.778,8.203,1.137,11.878,1.066l0.036,1.568
	c-3.787,0.073-7.897-0.295-12.217-1.095L1162.153,690.86z"/>
<path opacity="0.1" fill="#DAE7F7" d="M1186.115,688.426c3.816-1.339,7.177-3.369,9.987-6.032l1.127,1.125
	c-2.975,2.82-6.53,4.967-10.564,6.383L1186.115,688.426z"/>
</svg>
