<?xml version="1.0" encoding="utf-8"?>
<!-- Generator: Adobe Illustrator 17.0.0, SVG Export Plug-In . SVG Version: 6.00 Build 0)  -->
<!DOCTYPE svg PUBLIC "-//W3C//DTD SVG 1.1//EN" "http://www.w3.org/Graphics/SVG/1.1/DTD/svg11.dtd">
<svg version="1.1" id="Layer_1" xmlns="http://www.w3.org/2000/svg" xmlns:xlink="http://www.w3.org/1999/xlink" x="0px" y="0px"
	 width="727.464px" height="704.624px" viewBox="0 -46.157 727.464 704.624" enable-background="new 0 -46.157 727.464 704.624"
	 xml:space="preserve">
<path fill="#141414" d="M362.115,75.322c2.868-2.55,5.205-3.746,5.303-3.796l0.694,1.447c-0.022,0.011-2.253,1.155-4.972,3.571
	L362.115,75.322z"/>
<path fill="#141414" d="M359.502,231.33c2.776-3.067,5.302-6.199,7.508-9.311l1.268,0.951c-2.243,3.164-4.809,6.346-7.627,9.459
	L359.502,231.33z M373.211,211.776c1.839-3.652,3.329-7.399,4.429-11.139l1.501,0.467c-1.128,3.835-2.655,7.675-4.538,11.414
	L373.211,211.776z M379.883,188.842c0.164-1.832,0.248-3.708,0.248-5.577c-0.001-2.115-0.107-4.286-0.318-6.451l1.561-0.161
	c0.217,2.219,0.326,4.443,0.326,6.612c0,1.918-0.085,3.844-0.253,5.725L379.883,188.842z M373.983,153.466l1.459-0.592
	c1.562,4.079,2.792,7.895,3.761,11.668l-1.517,0.413C376.734,161.243,375.523,157.484,373.983,153.466z M363.768,131.553l1.38-0.765
	c2.202,4.199,3.937,7.654,5.461,10.873l-1.41,0.706C367.685,139.168,365.96,135.732,363.768,131.553z M358.042,120.77
	c-2.043-3.859-3.614-7.658-4.669-11.286l1.503-0.463c1.023,3.522,2.553,7.215,4.541,10.974l0.044,0.083l-1.385,0.758L358.042,120.77
	z M351.71,97.192c0.149-4.29,1.137-8.354,2.937-12.08l1.405,0.718c-1.7,3.52-2.632,7.361-2.774,11.419L351.71,97.192z"/>
<path fill="#141414" d="M346.29,243.987c1.636-1.381,3.233-2.783,4.747-4.171l1.044,1.206c-1.53,1.401-3.143,2.819-4.797,4.214
	L346.29,243.987z"/>
<g>
	<path fill="#F6C19D" d="M601.653,556.353c-9.488-20.634-14.444-43.165-14.488-65.992c-0.023-11.891,0.637-26.351,2.476-43.691
		c6.946-65.5,0-78.601-5.209-99.442s-62.425-161.006-62.425-161.006c-7.515-9.877-26.456,17.103-26.456,17.103
		c-19.808,46.049,12.476,83.166,12.476,83.166l4.504,53.284c0.792,9.373-1.521,18.758-6.606,26.578
		c-47.511,73.059-38.907,128.068-38.907,128.068l-95.592,0.482c0,0,15.049,35.133,43.411,67.883
		c14.575,16.83,29.609,26.269,40.78,31.469c11.86,5.52,21.135,15.613,25.668,28.166l12.796,35.44h154.247L601.653,556.353z"/>
</g>
<path opacity="0.2" fill="#F6C19D" enable-background="new    " d="M414.498,569.821c12.439,12.509,24.745,20.009,34.252,24.435
	c11.86,5.52,21.135,15.613,25.668,28.166l12.796,35.44h154.247l-46.674-101.51c-9.488-20.634-14.444-43.165-14.488-65.991
	c-0.004-1.898,0.012-3.87,0.045-5.899l-0.002,0.008c0,0-6.709,53.779-27.624,61.237c-20.916,7.46-40.804,4.877-55.122,21.229
	C483.279,583.29,456.982,588.192,414.498,569.821z"/>
<path fill="#DDDD00" d="M552.658,71.055c-8.325-0.988-18.261-1.977-18.261-1.977l12.502,10.652
	c-34.48,46.192-103.958,51.997-103.958,51.997S530.342,80.43,565.803,22.869C565.292,42.099,560.325,57.968,552.658,71.055z"/>
<path fill="#DDDD00" d="M442.941,131.726c0,0,87.401-51.297,122.862-108.858c0,0-23.099-4.636-49.264,1.162l-0.923,15.123
	c0,0-4.65-6.626-8.608-12.553c-9.762,3.126-19.614,7.901-28.566,15.066l7.686,11.36c0,0-7.978-3.834-13.37-6.351
	C455.853,63.026,443.336,89.433,442.941,131.726z"/>
<path fill="#5B99E6" d="M556.761,123.244l-8.428-4.751c0,0,1.492,4.088,2.916,7.665c-5.909,2.817-12.731,5.11-20.431,6.238
	l-2.683-6.895c0,0-1.438,4.464-2.449,7.455c-16.037,1.175-35.502-2.793-58.12-16.949c0,0,33.325-25.61,72.849-23.661l0.211,8.567
	c0,0,3.801-4.278,6.9-7.917c10.284,1.386,20.868,4.785,31.297,11.09C578.823,104.086,571.229,114.822,556.761,123.244z"/>
<path fill="#2671D1" d="M467.566,116.006c0,0,65.271-17.327,111.257-11.92c0,0-7.595,10.736-22.061,19.158l-8.428-4.751
	c0,0,1.492,4.088,2.916,7.665c-5.909,2.816-12.731,5.11-20.431,6.238l-2.683-6.895c0,0-1.438,4.464-2.449,7.455
	C509.649,134.13,490.185,130.161,467.566,116.006z"/>
<path fill="#141414" d="M270.696,262.8c-2-0.715-3.969-1.465-5.855-2.229l-0.575,1.502c1.905,0.773,3.895,1.529,5.915,2.251
	L270.696,262.8z"/>
<path fill="#F19A5E" d="M280.632,152.355c0,0-49.907-52.443-42.447-67.263c7.46-14.82,40.131,7.675,40.131,7.675L280.632,152.355z"
	/>
<path fill="#F19A5E" d="M280.632,250.369c0,0-49.907-52.442-42.447-67.263c7.46-14.82,40.131,7.675,40.131,7.675L280.632,250.369z"
	/>
<path fill="#F19A5E" d="M280.632,317.149c0,0-49.907-52.443-42.447-67.264c7.46-14.82,40.131,7.675,40.131,7.675L280.632,317.149z"
	/>
<path fill="#141414" d="M276.696,92.44v70.05v307.049c0,13.747,10.833,24.881,24.186,24.881h179.359
	c13.242,0,24.186-11.028,24.186-24.881v-70.05V92.44c0-13.744-10.83-24.881-24.186-24.881H300.882
	C287.652,67.559,276.696,78.574,276.696,92.44z"/>
<path opacity="0.2" fill="#F6C19D" enable-background="new    " d="M456.84,333.775c-3.417,0-90.263,39.688-92.281,45.279
	c-2.019,5.591,0,115.849,0,115.849s33.385,9.207,81.687,16.092c48.301,6.886,67.988-13.771,71.135-29.218
	c3.148-15.448-29.294-97.146-29.294-97.146S460.257,333.775,456.84,333.775z"/>
<path fill="#F7F7F9" d="M288.42,101.47v359.04h204.282V101.47L288.42,101.47L288.42,101.47z"/>
<path fill="#DAE7F7" d="M327.629,333.336V196.421c0-7.208,5.68-13.05,12.685-13.05h100.492c7.006,0,12.685,5.842,12.685,13.05
	v136.914c0,7.208-5.679,13.051-12.685,13.051H340.315C333.31,346.386,327.63,340.543,327.629,333.336z"/>
<path fill="#0050B3" d="M346.804,249.388l9.974,49.234c0.435,2.143,2.221,3.673,4.288,3.673h58.992c2.067,0,3.853-1.529,4.287-3.673
	l9.974-49.234H346.804z M414.312,295.039l3.349-34.896c0-1.373,1.082-2.485,2.415-2.485c1.334,0,2.416,1.112,2.416,2.485
	l-3.349,34.896c0,1.372-1.082,2.485-2.415,2.485C415.393,297.525,414.312,296.412,414.312,295.039z M402.163,295.039l1.34-34.896
	c0-1.373,1.081-2.485,2.415-2.485s2.416,1.112,2.416,2.485l-1.34,34.896c0,1.372-1.082,2.485-2.416,2.485
	C403.244,297.525,402.163,296.412,402.163,295.039z M388.146,260.144c0-1.373,1.082-2.485,2.416-2.485
	c1.333,0,2.415,1.112,2.415,2.485v34.896c0,1.372-1.082,2.485-2.415,2.485c-1.334,0-2.416-1.113-2.416-2.485V260.144z
	 M372.789,260.144c0-1.373,1.082-2.485,2.416-2.485c1.333,0,2.415,1.112,2.415,2.485l1.341,34.896c0,1.372-1.082,2.485-2.416,2.485
	s-2.416-1.113-2.416-2.485L372.789,260.144z M358.631,260.144c0-1.373,1.082-2.485,2.416-2.485s2.416,1.112,2.416,2.485
	l3.349,34.896c0,1.372-1.082,2.485-2.416,2.485s-2.416-1.113-2.416-2.485L358.631,260.144z"/>
<path fill="#0050B3" d="M342.315,249.388c0-2.197,1.731-3.977,3.866-3.977h88.759c2.135,0,3.866,1.78,3.866,3.977
	s-1.73,3.977-3.866,3.977h-88.759C344.047,253.365,342.315,251.585,342.315,249.388z"/>
<path fill="#0050B3" d="M418.466,247.938c1.195,0,2.164-0.997,2.164-2.226v-3.436c0-8.181-6.447-14.814-14.401-14.814h-31.337
	c-7.954,0-14.401,6.633-14.401,14.814v3.436c0,1.23,0.97,2.226,2.165,2.226c1.195,0,2.164-0.997,2.164-2.226v-3.436
	c0-5.722,4.509-10.361,10.072-10.361h31.337c5.563,0,10.073,4.639,10.073,10.361v3.436
	C416.302,246.941,417.271,247.938,418.466,247.938z"/>
<path fill="#F7F7F9" d="M346.688,88.379v-0.885c0-0.998,0.786-1.807,1.756-1.807h83.902c0.97,0,1.756,0.809,1.756,1.807v0.885
	c0,0.998-0.786,1.807-1.756,1.807h-83.902C347.475,90.186,346.688,89.378,346.688,88.379z"/>
<path fill="#F6C19D" d="M560.636,300.283c-18.59-48.147-45.496-114.062-45.496-114.062c-3.444-4.526-9.289-1.311-14.61,3.5
	c-9.322,8.43-15.417,20.032-17.381,32.639c-5.738,36.826,18.012,64.13,18.012,64.13l3.313,39.188
	c2.787-2.32,4.019-7.033,4.019-7.033L560.636,300.283z"/>
<path opacity="0.3" fill="#DAE7F7" enable-background="new    " d="M400.712,477.808c0-5.7-4.492-10.321-10.033-10.321
	s-10.033,4.622-10.033,10.321c0,5.701,4.491,10.321,10.033,10.321C396.22,488.129,400.712,483.509,400.712,477.808z"/>
<path fill="#DAE7F7" d="M386.499,480.886v-6.155c0-0.674,0.533-1.222,1.188-1.222h5.983c0.656,0,1.188,0.548,1.188,1.222v6.155
	c0,0.674-0.532,1.222-1.188,1.222h-5.983C387.032,482.108,386.499,481.56,386.499,480.886z M387.687,473.841
	c-0.477,0-0.865,0.4-0.865,0.89v6.155c0,0.491,0.388,0.89,0.865,0.89h5.983c0.477,0,0.866-0.399,0.866-0.89v-6.155
	c0-0.49-0.389-0.89-0.866-0.89H387.687z"/>
<path fill="#D0E1F5" d="M288.42,439.272v21.238h204.282v-21.238H288.42L288.42,439.272z"/>
<path fill="#D0E1F5" d="M288.42,101.47v19.053h204.282V101.47H288.42L288.42,101.47z"/>
<path fill="#F19A5E" d="M529.275,221.117c-8.21-20.381-14.134-34.896-14.134-34.896c-4.093-5.38-11.577,0.177-17.543,6.351
	c1.39,8.946,5.271,28.845,12.705,32.363C515.861,227.566,523.661,224.331,529.275,221.117z"/>
<path fill="#141414" d="M604.008,565.86l9.686,26.69c0.592,1.63-0.075,3.539-1.657,4.799
	c-46.484,36.993-112.55,47.223-128.562,49.223c-2.124,0.266-4.014-0.745-4.642-2.475l-9.491-26.154
	c-0.941-2.594,1.298-5.594,4.48-5.979c54.331-6.576,106.875-37.422,123.197-47.737C599.676,562.548,603.095,563.347,604.008,565.86z
	"/>
<path d="M599.417,588.124l-2.922-8.051c-0.356-0.981,0.128-2.072,1.081-2.438l0.18-0.069c0.953-0.365,2.014,0.132,2.37,1.113
	l2.922,8.051c0.356,0.981-0.128,2.072-1.081,2.438l-0.18,0.069C600.834,589.603,599.773,589.104,599.417,588.124z"/>
<path d="M589.644,594.321l-2.922-8.052c-0.355-0.98,0.129-2.072,1.082-2.437l0.18-0.069c0.952-0.366,2.013,0.132,2.37,1.112
	l2.922,8.052c0.355,0.98-0.129,2.072-1.082,2.438l-0.179,0.068C591.06,595.8,590,595.301,589.644,594.321z"/>
<path d="M579.855,600.475l-2.922-8.051c-0.355-0.981,0.129-2.072,1.082-2.438l0.179-0.069c0.953-0.366,2.014,0.132,2.37,1.113
	l2.922,8.051c0.356,0.98-0.129,2.072-1.082,2.438l-0.179,0.069C581.272,601.954,580.212,601.455,579.855,600.475z"/>
<path d="M569.782,605.481l-2.922-8.052c-0.356-0.98,0.128-2.072,1.081-2.438l0.179-0.069c0.953-0.365,2.014,0.132,2.37,1.113
	l2.923,8.051c0.355,0.981-0.129,2.072-1.082,2.438l-0.18,0.069C571.198,606.958,570.138,606.46,569.782,605.481z"/>
<path d="M559.871,611.298l-2.922-8.052c-0.355-0.98,0.129-2.072,1.082-2.437l0.179-0.069c0.953-0.366,2.014,0.132,2.37,1.112
	l2.922,8.052c0.355,0.981-0.129,2.072-1.082,2.438l-0.18,0.068C561.288,612.776,560.228,612.279,559.871,611.298z"/>
<path d="M549.523,615.911l-2.921-8.052c-0.356-0.981,0.128-2.072,1.081-2.438l0.18-0.068c0.953-0.366,2.014,0.132,2.37,1.112
	l2.922,8.052c0.356,0.98-0.128,2.072-1.081,2.437l-0.179,0.069C550.941,617.39,549.879,616.891,549.523,615.911z"/>
<path d="M538.973,619.963l-2.922-8.051c-0.356-0.98,0.128-2.072,1.081-2.438l0.179-0.068c0.953-0.365,2.014,0.132,2.37,1.112
	l2.922,8.052c0.356,0.98-0.128,2.072-1.081,2.437l-0.18,0.069C540.39,621.442,539.329,620.944,538.973,619.963z"/>
<path d="M528.218,623.456l-2.922-8.053c-0.356-0.98,0.129-2.071,1.082-2.437l0.18-0.068c0.953-0.366,2.013,0.131,2.37,1.112
	l2.922,8.051c0.356,0.981-0.129,2.073-1.082,2.438l-0.18,0.069C529.634,624.933,528.574,624.436,528.218,623.456z"/>
<path d="M517.027,625.742l-2.922-8.052c-0.356-0.981,0.128-2.072,1.081-2.438l0.179-0.068c0.953-0.366,2.014,0.132,2.37,1.112
	l2.922,8.052c0.356,0.98-0.128,2.072-1.081,2.437l-0.179,0.069C518.443,627.22,517.382,626.723,517.027,625.742z"/>
<path d="M506.129,628.842l-2.922-8.052c-0.355-0.98,0.129-2.071,1.082-2.437l0.179-0.069c0.953-0.366,2.014,0.132,2.37,1.112
	l2.922,8.052c0.356,0.98-0.129,2.072-1.081,2.438l-0.18,0.068C507.546,630.32,506.486,629.823,506.129,628.842z"/>
<path d="M494.816,630.793l-2.922-8.053c-0.355-0.98,0.129-2.071,1.082-2.437l0.18-0.069c0.953-0.365,2.013,0.132,2.37,1.113
	l2.922,8.051c0.355,0.981-0.129,2.072-1.082,2.438l-0.18,0.069C496.232,632.271,495.172,631.773,494.816,630.793z"/>
<path d="M483.487,632.701l-2.922-8.052c-0.355-0.98,0.129-2.072,1.081-2.437l0.18-0.069c0.953-0.365,2.013,0.132,2.37,1.113
	l2.922,8.051c0.355,0.98-0.129,2.072-1.082,2.438l-0.179,0.069C484.903,634.18,483.842,633.681,483.487,632.701z"/>
<path fill="#AC8CCE" d="M560.816,626.428c1.508,1.423,3.623,1.972,5.552,1.231l12.858-4.938c2.818-1.083,4.186-4.511,3.05-7.643
	l-11.594-31.947c-1.137-3.132-4.354-4.8-7.172-3.718l-12.859,4.939c-2.392,0.919-3.733,3.529-3.389,6.213
	c1.029-0.451,2.046-0.903,3.055-1.356c0.194-0.785,0.714-1.446,1.467-1.737l12.858-4.938c1.27-0.488,2.719,0.264,3.231,1.675
	l11.595,31.947c0.512,1.411-0.105,2.955-1.374,3.444l-12.858,4.938c-0.169,0.065-0.341,0.106-0.514,0.128l0.044,0.123
	C563.448,625.348,562.132,625.894,560.816,626.428z"/>
<path fill="#F7F7F9" d="M569.053,603.472l5.593-2.148c1.002-0.385,1.488-1.6,1.083-2.715c-0.404-1.114-1.545-1.705-2.548-1.32
	l-5.592,2.148L569.053,603.472z"/>
<path fill="#4385D8" d="M316.499,384.919v-3.773c0-7.063,5.566-12.79,12.433-12.79h126.105c6.867,0,12.434,5.727,12.434,12.79v3.773
	c0,7.065-5.566,12.792-12.434,12.792H328.932C322.066,397.711,316.499,391.984,316.499,384.919z"/>
<g>
	<path fill="#F3A875" d="M305.032,347.464c0.386,0.794-7.686,23.819-7.686,23.819h26.979c26.047-2.581,28.17-15.879,27.205-23.422
		c-0.964-7.542-28.555-9.924-28.555-9.924S304.645,346.67,305.032,347.464z"/>
	<path fill="#F6C19D" d="M315.16,479.222c-21.995,31.559-47.463,51.209-47.463,51.209c-24.89-48.232,32.414-157.796,55.566-192.334
		c23.153-34.537,37.623-63.118,35.887-74.432c-0.471-3.064-2.172-5.386-4.403-7.142c-6.936-5.46-16.881-4.116-22.523,2.743
		l-57.003,69.305c-23.731,0-65.407,25.605-65.407,25.605c-21.995-4.764-44.568,19.65-44.568,19.65
		c-37.044-3.573-56.725,104.206-56.725,104.206c-25.468,129.812-56.145,179.83-56.145,179.83h130.235c0,0,17.365-29.177,59.619-39.3
		c42.254-10.123,54.988-29.773,60.197-38.11c4.551-7.282,55.035-96.806,67.732-119.333c2.123-3.765,0.822-8.624-2.916-10.665
		C355.246,443.904,333.58,452.794,315.16,479.222z"/>
	<path fill="#F19A5E" d="M275.129,328.727c-6.684,6.581-14.372,15.079-20.435,22.272c-12.068,14.36-21.641,28.064-26.813,36.688
		c-6.911,11.031-14.845,26.999-17.883,41.825l-0.17-0.036c2.639-15.781,8.217-28.348,16.671-42.68
		c6.703-11.593,18.12-26.599,27.163-36.721c6.695-7.592,13.785-14.817,21.348-21.477L275.129,328.727z"/>
	<path fill="#F19A5E" d="M210.273,354.145c-5.512,3.459-11.212,8.757-15.57,13.663c-4.608,5.204-8.664,10.931-11.995,17.078
		c-3.326,5.825-6.073,12.847-8.027,19.384c-1.937,6.754-3.183,13.714-3.754,20.734l-0.173-0.014
		c0.155-10.249,1.123-14.643,2.619-21.119c1.765-6.912,4.396-13.618,7.824-19.864c3.511-6.296,7.589-12.065,12.497-17.152
		c4.85-5.107,10.338-9.627,16.493-12.867L210.273,354.145z"/>
	<path fill="#F19A5E" d="M165.802,373.456c-4.984,5.076-10.242,13.311-12.265,17.469c-3.391,6.744-5.376,11.246-7.905,19.993
		c-1.65,5.77-2.155,9.324-2.956,14.091l-0.172-0.024c0.203-4.918,0.528-9.615,1.815-14.45c1.756-7.562,4.418-14.466,7.781-20.415
		c2.67-5.065,8.181-12.561,13.625-16.795L165.802,373.456z"/>
	<path fill="#F19A5E" d="M353.36,490.897c7.245-12.833,13.386-23.727,16.797-29.78c1.934-3.43,1.019-7.761-1.984-10.048
		c-5.372-1.883-11.479-0.2-15.348,4.303c-6.198,7.213-13.026,16.773-11.871,22.801C342.024,483.754,347.936,488.055,353.36,490.897z
		"/>
	<path fill="#F19A5E" d="M341.335,284.107c3.857-5.493,12.601-18.703,11.545-24.138c-1.07-5.504-5.935-6.081-7.911-6.084
		c-0.378-0.001-0.649,0.02-0.768,0.031c-0.023,0.002-0.046,0.005-0.069,0.006l0,0c-4.221,0.411-8.305,2.48-11.231,6.037
		l-14.736,17.915c-0.914,2.803,14.025,7.912,17.317,8.591C337.715,286.926,340.002,286.005,341.335,284.107z"/>
	<path opacity="0.2" fill="#F6C19D" enable-background="new    " d="M242.229,618.561c40.342-9.665,53.774-28.014,59.441-36.91
		c-12.74,6.145-103.677,25.649-127.102,21.821c-20.346-3.324-71.613,0.131-80.905-59.801
		c-21.176,81.393-41.288,114.19-41.288,114.19H182.61C182.61,657.861,199.975,628.684,242.229,618.561z"/>
	<path opacity="0.2" fill="#F6C19D" enable-background="new    " d="M275.129,406.854c-60.488,95.535-22.477,138.854-22.477,138.854
		l15.044-15.276c-22.666-42.302,23.147-139.26,48.682-181.469C303.195,365.391,289.205,384.623,275.129,406.854z"/>
</g>
<path fill="#085FCC" d="M341.643,156.379v-12.507h32.587v12.507c0,9.21-7.258,16.677-16.211,16.677h-0.165
	C348.9,173.056,341.643,165.589,341.643,156.379z"/>
<path fill="#88B2E7" d="M374.23,156.379v-12.507h32.587v12.507c0,9.21-7.258,16.677-16.211,16.677h-0.166
	C381.488,173.056,374.23,165.589,374.23,156.379z"/>
<path fill="#085FCC" d="M406.817,156.379v-12.507h32.588v12.507c0,9.21-7.259,16.677-16.212,16.677h-0.165
	C414.076,173.056,406.817,165.589,406.817,156.379z"/>
<path fill="#88B2E7" d="M439.405,156.379v-12.507h32.586v12.507c0,9.21-7.258,16.677-16.211,16.677h-0.165
	C446.662,173.056,439.405,165.589,439.405,156.379z"/>
<path fill="#085FCC" d="M471.991,156.379v-12.507h32.587v12.507c0,9.21-7.258,16.677-16.211,16.677h-0.165
	C479.25,173.056,471.991,165.589,471.991,156.379z"/>
<path fill="#88B2E7" d="M243.956,156.379v-12.507h32.588v12.507c0,9.21-7.259,16.677-16.212,16.677h-0.165
	C251.214,173.056,243.956,165.589,243.956,156.379z"/>
<path fill="#085FCC" d="M276.543,156.379v-12.507h32.587v12.507c0,9.21-7.258,16.677-16.211,16.677h-0.165
	C283.801,173.056,276.543,165.589,276.543,156.379z"/>
<path fill="#88B2E7" d="M309.056,156.379v-12.507h32.587v12.507c0,9.21-7.258,16.677-16.211,16.677h-0.165
	C316.313,173.056,309.056,165.589,309.056,156.379z"/>
<path fill="#88B2E7" d="M504.579,156.379v-12.507h32.587v12.507c0,9.21-7.259,16.677-16.212,16.677h-0.165
	C511.837,173.056,504.579,165.589,504.579,156.379z"/>
<path fill="#DAE7F7" d="M374.23,143.872h32.587l-4.709-42.402h-23.169L374.23,143.872z"/>
<path fill="#669CDF" d="M406.817,143.872h32.588l-14.128-42.402h-23.169L406.817,143.872z"/>
<path fill="#DAE7F7" d="M439.405,143.872h32.586l-23.545-42.402h-23.168L439.405,143.872z"/>
<path fill="#669CDF" d="M471.991,143.872h32.587l-32.963-42.402h-23.17L471.991,143.872z"/>
<path fill="#DAE7F7" d="M504.579,143.872h32.587l-42.382-42.402h-23.169L504.579,143.872z"/>
<path fill="#DAE7F7" d="M243.956,143.872h32.588l33.041-42.402h-23.169L243.956,143.872z"/>
<path fill="#669CDF" d="M276.544,143.872h32.586l23.509-42.402H309.47L276.544,143.872z"/>
<path fill="#DAE7F7" d="M309.056,143.872h32.587l14.166-42.402h-23.17L309.056,143.872z"/>
<path fill="#669CDF" d="M341.643,143.872h32.587l4.748-42.402h-23.169L341.643,143.872z"/>
<g>
	<path fill="#F7F7F9" d="M370.58,373.528h9.067v1.824h-6.895v5.595h6.37v1.799h-6.37v7.618h-2.173L370.58,373.528L370.58,373.528z"
		/>
	<path fill="#F7F7F9" d="M385.116,374.877c0.024,0.749-0.524,1.349-1.399,1.349c-0.773,0-1.323-0.6-1.323-1.349
		c0-0.774,0.574-1.374,1.374-1.374C384.592,373.503,385.116,374.103,385.116,374.877z M382.668,390.363v-12.09h2.198v12.09H382.668z
		"/>
	<path fill="#F7F7F9" d="M388.513,381.546c0-1.249-0.024-2.273-0.1-3.272h1.948l0.125,1.998h0.05c0.6-1.148,1.998-2.272,3.997-2.272
		c1.673,0,4.271,0.999,4.271,5.146v7.219h-2.197v-6.969c0-1.948-0.725-3.572-2.798-3.572c-1.449,0-2.573,1.024-2.947,2.248
		c-0.101,0.274-0.15,0.649-0.15,1.024v7.269h-2.198L388.513,381.546L388.513,381.546z"/>
	<path fill="#F7F7F9" d="M412.816,372.629v14.612c0,1.074,0.024,2.298,0.1,3.122h-1.973l-0.101-2.099h-0.05
		c-0.675,1.35-2.148,2.373-4.121,2.373c-2.923,0-5.171-2.473-5.171-6.145c-0.025-4.021,2.473-6.494,5.42-6.494
		c1.849,0,3.098,0.874,3.647,1.849h0.05v-7.219L412.816,372.629L412.816,372.629z M410.618,383.195c0-0.274-0.025-0.649-0.1-0.924
		c-0.325-1.399-1.524-2.548-3.173-2.548c-2.272,0-3.622,1.998-3.622,4.671c0,2.447,1.199,4.471,3.572,4.471
		c1.474,0,2.822-0.974,3.223-2.622c0.074-0.3,0.1-0.6,0.1-0.949L410.618,383.195L410.618,383.195z"/>
</g>
<path fill="#DAE7F7" d="M289.818,658.424l-1.415,0.68l-0.041-0.086c-1.845-3.858-3.906-7.302-6.126-10.232l1.247-0.952
	c2.287,3.019,4.407,6.56,6.302,10.523L289.818,658.424z"/>
<path opacity="0.2" fill="#013B7A" d="M359.925,623.936c1.132-1.12,7.389-22.408,7.389-22.408l5.708-42.059l-30.926,53.409
	l-14.13,17.284l25.967-2.273C353.934,627.89,358.794,625.055,359.925,623.936z"/>
<path opacity="0.2" fill="#0050B3" d="M353.934,627.89l19.089-68.421l-4.259,87.757L353.934,627.89z"/>
<path opacity="0.2" fill="#0050B3" d="M373.023,559.469l-25.854,62.917l-18.064-23.781L373.023,559.469z"/>
<path opacity="0.2" fill="#DAE7F7" d="M341.593,637.002c1.518-3.489,1.918-6.069,1.934-6.177l-1.596-0.231
	c-0.004,0.025-0.385,2.489-1.824,5.795L341.593,637.002z"/>
<path opacity="0.2" fill="#DAE7F7" d="M299.565,654.361l0.283-1.544l0.094,0.018c4.205,0.778,8.203,1.137,11.878,1.066l0.036,1.568
	c-3.787,0.073-7.897-0.295-12.217-1.095L299.565,654.361z"/>
<path opacity="0.2" fill="#DAE7F7" d="M323.526,651.927c3.817-1.339,7.177-3.369,9.988-6.032l1.127,1.125
	c-2.975,2.82-6.53,4.967-10.564,6.383L323.526,651.927z"/>
<path fill="#DAE7F7" d="M391.3,66.737l0.457,1.502l-0.091,0.027c-4.093,1.237-7.811,2.751-11.044,4.5l-0.751-1.377
	c3.331-1.802,7.153-3.359,11.358-4.63L391.3,66.737z"/>
<path fill="#013B7A" d="M367.868-7.797c-0.934-1.289-21.025-10.709-21.025-10.709L306.14-30.54l48.089,38.684l14.936,16.593
	l1.7-26.011C370.865-1.274,368.802-6.509,367.868-7.797z"/>
<path fill="#0050B3" d="M370.865-1.274L306.14-30.54l86.091,17.546L370.865-1.274z"/>
<path fill="#0050B3" d="M306.14-30.54l58.257,35.116l-26.25,14.24L306.14-30.54z"/>
<path fill="#DAE7F7" d="M377.996,12.308c-3.218-2.031-5.707-2.818-5.811-2.85L371.713,11c0.024,0.008,2.402,0.759,5.45,2.683
	L377.996,12.308z"/>
<path opacity="0.2" fill="#DAE7F7" d="M230.094,138.413l-1.483-0.514l0.032-0.09c1.408-4.038,2.371-7.934,2.859-11.578l1.556,0.203
	c-0.503,3.754-1.492,7.761-2.938,11.909L230.094,138.413z"/>
<path opacity="0.2" fill="#DAE7F7" d="M231.33,114.36c-0.743-3.976-2.239-7.606-4.444-10.788l1.283-0.943
	c2.335,3.369,3.917,7.209,4.703,11.411L231.33,114.36z"/>
<path fill="#DAE7F7" d="M436.197,54.06l0.516,1.483l-0.09,0.031c-4.041,1.398-7.696,3.058-10.858,4.933l-0.805-1.347
	c3.258-1.932,7.015-3.64,11.166-5.076L436.197,54.06z"/>
<path fill="#013B7A" d="M63.235,538.776c-0.934-1.289-21.025-10.709-21.025-10.709L1.507,516.033l48.089,38.684l14.936,16.593
	l1.7-26.011C66.232,545.298,64.17,540.064,63.235,538.776z"/>
<path fill="#0050B3" d="M66.232,545.298L1.507,516.033l86.091,17.546L66.232,545.298z"/>
<path fill="#0050B3" d="M1.507,516.033l58.257,35.116l-26.25,14.24L1.507,516.033z"/>
<path fill="#DAE7F7" d="M73.363,558.881c-3.218-2.031-5.707-2.818-5.811-2.85l-0.471,1.543c0.024,0.008,2.402,0.759,5.45,2.683
	L73.363,558.881z"/>
</svg>
